#tb 0: 1/22050
#media_type 0: audio
#codec_id 0: pcm_s16le
#sample_rate 0: 22050
#channel_layout 0: 3
0,          0,          0,    73500,   294000, 0x37d439ee
0,      73500,      73500,     1470,     5880, 0xe524b177
0,      74970,      74970,     1470,     5880, 0x9e784af1
0,      76440,      76440,     1470,     5880, 0x821989b0
0,      77910,      77910,     1470,     5880, 0x8f4993da
0,      79380,      79380,     1470,     5880, 0x889a9035
0,      80850,      80850,     1470,     5880, 0x7f0f5299
0,      82320,      82320,     1470,     5880, 0xf12f5d2a
0,      83790,      83790,     1470,     5880, 0xd6292fda
0,      85260,      85260,     1470,     5880, 0xe1b8405f
0,      86730,      86730,     1470,     5880, 0xe23d2d44
0,      88200,      88200,     1470,     5880, 0xe20631a4
0,      89670,      89670,     1470,     5880, 0x3f72210f
0,      91140,      91140,     1470,     5880, 0xec0b3fe8
0,      92610,      92610,     1470,     5880, 0x9615f198
0,      94080,      94080,     1470,     5880, 0x500226ce
